ffmpeg version N-55863-g9f38fac053-static https://johnvansickle.com/ffmpeg/  Copyright (c) 2000-2021 the FFmpeg developers
  built with gcc 8 (Debian 8.3.0-6)
  configuration: --enable-gpl --enable-version3 --enable-static --disable-debug --disable-ffplay --disable-indev=sndio --disable-outdev=sndio --cc=gcc --enable-fontconfig --enable-frei0r --enable-gnutls --enable-gmp --enable-libgme --enable-gray --enable-libaom --enable-libfribidi --enable-libass --enable-libvmaf --enable-libfreetype --enable-libmp3lame --enable-libopencore-amrnb --enable-libopencore-amrwb --enable-libopenjpeg --enable-librubberband --enable-libsoxr --enable-libspeex --enable-libsrt --enable-libvorbis --enable-libopus --enable-libtheora --enable-libvidstab --enable-libvo-amrwbenc --enable-libvpx --enable-libwebp --enable-libx264 --enable-libx265 --enable-libxml2 --enable-libdav1d --enable-libxvid --enable-libzvbi --enable-libzimg
  libavutil      56. 64.100 / 56. 64.100
  libavcodec     58.119.100 / 58.119.100
  libavformat    58. 65.101 / 58. 65.101
  libavdevice    58. 11.103 / 58. 11.103
  libavfilter     7.100.100 /  7.100.100
  libswscale      5.  8.100 /  5.  8.100
  libswresample   3.  8.100 /  3.  8.100
  libpostproc    55.  8.100 / 55.  8.100
Input #0, mov,mp4,m4a,3gp,3g2,mj2, from '/home/yiaapc5/public_html/f_data/data_userfiles/user_uploads/3232170153/v/1614563406.mp4':
  Metadata:
    major_brand     : isom
    minor_version   : 512
    compatible_brands: isomiso2avc1mp41
    encoder         : Lavf58.54.100
  Duration: 00:01:54.15, start: 0.000000, bitrate: 2265 kb/s
    Stream #0:0(und): Video: h264 (Main) (avc1 / 0x31637661), yuv420p(tv), 730x406 [SAR 1:1 DAR 365:203], 2167 kb/s, 23.67 fps, 100 tbr, 90k tbn, 60 tbc (default)
    Metadata:
      handler_name    : VideoHandler
      vendor_id       : [0][0][0][0]
    Stream #0:1(und): Audio: aac (LC) (mp4a / 0x6134706D), 44100 Hz, stereo, fltp, 93 kb/s (default)
    Metadata:
      handler_name    : SoundHandler
      vendor_id       : [0][0][0][0]
Codec AVOption rc_eq (Set rate control equation. When computing the expression, besides the standard functions defined in the section 'Expression Evaluation', the following functions are available: bits2qp(bits), qp2bits(qp). Also the following constants are available: iTex pTex tex mv fCode iCount mcVar var isI isP isB avgQP qComp avgIITex avgPITex avgPPTex avgBPTex avgTex.) specified for output file #0 (/home/yiaapc5/public_html/f_data/data_userfiles/user_media/3232170153/v/79211e71b3a34160c53a0733670e4d5e.mob.nomob.mp4) has not been used for any stream. The most likely reason is either wrong type (e.g. a video option with no video streams) or that it is a private option of some encoder which was not actually used for any stream.
Stream mapping:
  Stream #0:0 -> #0:0 (h264 (native) -> h264 (libx264))
  Stream #0:1 -> #0:1 (aac (native) -> aac (native))
Press [q] to stop, [?] for help
[libx264 @ 0x59b5b80] Application has requested 32 threads. Using a thread count greater than 16 is not recommended.
[libx264 @ 0x59b5b80] using SAR=3179/3120
[libx264 @ 0x59b5b80] frame MB size (30x17) > level limit (396)
[libx264 @ 0x59b5b80] VBV bitrate (10000) > level limit (768)
[libx264 @ 0x59b5b80] VBV buffer (10000) > level limit (2000)
[libx264 @ 0x59b5b80] MB rate (15300) > level limit (11880)
[libx264 @ 0x59b5b80] using cpu capabilities: MMX2 SSE2Fast SSSE3 SSE4.2 AVX
[libx264 @ 0x59b5b80] profile Constrained Baseline, level 1.3, 4:2:0, 8-bit
[libx264 @ 0x59b5b80] 264 - core 161 r3040 35417dc - H.264/MPEG-4 AVC codec - Copyleft 2003-2021 - http://www.videolan.org/x264.html - options: cabac=0 ref=1 deblock=1:0:0 analyse=0x1:0 me=hex subme=1 psy=1 psy_rd=1.00:0.00 mixed_ref=0 me_range=16 chroma_me=1 trellis=0 8x8dct=0 cqm=0 deadzone=21,11 fast_pskip=1 chroma_qp_offset=0 threads=32 lookahead_threads=2 sliced_threads=0 nr=0 decimate=1 interlaced=0 bluray_compat=0 constrained_intra=0 bframes=0 weightp=0 keyint=300 keyint_min=25 scenecut=40 intra_refresh=0 rc_lookahead=30 rc=abr mbtree=1 bitrate=1000 ratetol=1.0 qcomp=0.60 qpmin=10 qpmax=51 qpstep=4 vbv_maxrate=10000 vbv_bufsize=10000 nal_hrd=none filler=0 ip_ratio=1.41 aq=1:1.00
Output #0, mp4, to '/home/yiaapc5/public_html/f_data/data_userfiles/user_media/3232170153/v/79211e71b3a34160c53a0733670e4d5e.mob.nomob.mp4':
  Metadata:
    major_brand     : isom
    minor_version   : 512
    compatible_brands: isomiso2avc1mp41
    encoder         : Lavf58.65.101
    Stream #0:0(und): Video: h264 (avc1 / 0x31637661), yuv420p(tv, progressive), 480x272 [SAR 3179:3120 DAR 187:104], q=2-31, 1000 kb/s, 30 fps, 15360 tbn (default)
    Metadata:
      handler_name    : VideoHandler
      vendor_id       : [0][0][0][0]
      encoder         : Lavc58.119.100 libx264
    Side data:
      cpb: bitrate max/min/avg: 10000000/0/1000000 buffer size: 10000000 vbv_delay: N/A
    Stream #0:1(und): Audio: aac (LC) (mp4a / 0x6134706D), 44100 Hz, stereo, fltp, 93 kb/s (default)
    Metadata:
      handler_name    : SoundHandler
      vendor_id       : [0][0][0][0]
      encoder         : Lavc58.119.100 aac
frame=    2 fps=0.0 q=0.0 size=       0kB time=00:00:00.55 bitrate=   0.7kbits/s dup=1 drop=0 speed=24.1x    frame=  303 fps=0.0 q=19.0 size=     768kB time=00:00:10.63 bitrate= 591.6kbits/s dup=82 drop=0 speed=20.3x    frame=  537 fps=524 q=24.0 size=    2048kB time=00:00:18.45 bitrate= 908.9kbits/s dup=136 drop=0 speed=  18x    frame=  829 fps=544 q=23.0 size=    3328kB time=00:00:28.18 bitrate= 967.2kbits/s dup=191 drop=0 speed=18.5x    frame= 1061 fps=524 q=23.0 size=    4352kB time=00:00:35.85 bitrate= 994.4kbits/s dup=235 drop=0 speed=17.7x    frame= 1233 fps=488 q=22.0 size=    5120kB time=00:00:41.63 bitrate=1007.4kbits/s dup=267 drop=0 speed=16.5x    frame= 1443 fps=477 q=23.0 size=    6144kB time=00:00:48.64 bitrate=1034.7kbits/s dup=309 drop=0 speed=16.1x    frame= 1643 fps=466 q=23.0 size=    7168kB time=00:00:55.33 bitrate=1061.2kbits/s dup=349 drop=0 speed=15.7x    frame= 1925 fps=478 q=21.0 size=    8448kB time=00:01:04.71 bitrate=1069.4kbits/s dup=413 drop=0 speed=16.1x    frame= 2207 fps=488 q=25.0 size=    9984kB time=00:01:14.09 bitrate=1103.8kbits/s dup=467 drop=0 speed=16.4x    frame= 2516 fps=500 q=25.0 size=   11264kB time=00:01:24.38 bitrate=1093.5kbits/s dup=536 drop=0 speed=16.8x    frame= 2850 fps=516 q=26.0 size=   13056kB time=00:01:35.52 bitrate=1119.6kbits/s dup=611 drop=0 speed=17.3x    frame= 3174 fps=527 q=26.0 size=   14336kB time=00:01:46.34 bitrate=1104.3kbits/s dup=672 drop=0 speed=17.6x    frame= 3424 fps=532 q=-1.0 Lsize=   15861kB time=00:01:54.10 bitrate=1138.8kbits/s dup=723 drop=0 speed=17.7x    
video:14467kB audio:1298kB subtitle:0kB other streams:0kB global headers:0kB muxing overhead: 0.608153%
[libx264 @ 0x59b5b80] frame I:73    Avg QP:16.95  size: 17798
[libx264 @ 0x59b5b80] frame P:3351  Avg QP:19.15  size:  4033
[libx264 @ 0x59b5b80] mb I  I16..4:  8.8%  0.0% 91.2%
[libx264 @ 0x59b5b80] mb P  I16..4:  8.3%  0.0%  0.0%  P16..4: 57.9%  0.0%  0.0%  0.0%  0.0%    skip:33.8%
[libx264 @ 0x59b5b80] final ratefactor: 18.12
[libx264 @ 0x59b5b80] coded y,uvDC,uvAC intra: 63.8% 73.1% 42.1% inter: 30.6% 29.0% 4.1%
[libx264 @ 0x59b5b80] i16 v,h,dc,p: 34% 31% 15% 20%
[libx264 @ 0x59b5b80] i4 v,h,dc,ddl,ddr,vr,hd,vl,hu: 23% 24%  9%  8%  7%  6%  8%  6%  9%
[libx264 @ 0x59b5b80] i8c dc,h,v,p: 35% 27% 24% 14%
[libx264 @ 0x59b5b80] kb/s:1038.31
[aac @ 0x5a120c0] Qavg: 384.762
